<?xml version="1.0" encoding="UTF-8"?>
<svg version="1.1" xmlns="http://www.w3.org/2000/svg" width="57" height="64">
<path d="M0 0 C1.30324219 -0.00515625 2.60648438 -0.0103125 3.94921875 -0.015625 C7.3125 0.25 7.3125 0.25 10.3125 2.25 C10.9725 1.59 11.6325 0.93 12.3125 0.25 C14.75 -0.125 14.75 -0.125 17.3125 0.25 C17.786875 0.91 18.26125 1.57 18.75 2.25 C19.5234375 3.24 19.5234375 3.24 20.3125 4.25 C23.39615871 4.5002157 23.39615871 4.5002157 26.3125 4.25 C27.3125 5.25 27.3125 5.25 27.4375 8.25 C27.3125 11.25 27.3125 11.25 26.3125 12.25 C24.31291636 12.29080783 22.31204746 12.29254356 20.3125 12.25 C19.6525 10.93 18.9925 9.61 18.3125 8.25 C17.549375 8.476875 16.78625 8.70375 16 8.9375 C15.113125 9.040625 14.22625 9.14375 13.3125 9.25 C11.5 7.8125 11.5 7.8125 10.3125 6.25 C9.95929687 6.73597656 9.60609375 7.22195312 9.2421875 7.72265625 C5.71835654 10.51176132 1.09315968 9.67705956 -3.2421875 9.74609375 C-7.53922385 10.37457186 -9.03965736 10.75266187 -11.6875 14.25 C-12.3552446 18.45077036 -12.24675349 22.57022649 -12.125 26.8125 C-12.11919922 27.96169922 -12.11339844 29.11089844 -12.10742188 30.29492188 C-12.21328601 36.63725129 -12.21328601 36.63725129 -9.6875 42.25 C-4.8404802 43.86567327 0.11085448 43.55937944 5.1875 43.625 C6.82138672 43.68107422 6.82138672 43.68107422 8.48828125 43.73828125 C14.87618252 43.83267739 14.87618252 43.83267739 20.53125 41.140625 C22.63902461 37.72011357 22.90995039 35.61969321 22.9375 31.625 C23.00550479 25.6813812 23.00550479 25.6813812 24.671875 23.33984375 C26.3125 22.25 26.3125 22.25 28.9375 22.4375 C31.3125 23.25 31.3125 23.25 32.3125 25.25 C32.94621421 33.16623323 33.39491548 40.73661318 28.3125 47.25 C21.25832035 53.95147066 14.92775303 53.64458387 5.5625 53.6875 C4.31210937 53.72037109 3.06171875 53.75324219 1.7734375 53.78710938 C-5.60683309 53.83001792 -11.24223822 53.58049432 -16.6875 48.25 C-22.70257982 41.98316096 -22.4162268 34.97637675 -22.25 26.6875 C-22.26095703 25.49447266 -22.27191406 24.30144531 -22.28320312 23.07226562 C-22.21398547 14.77076162 -21.04452246 10.3903277 -15.8125 3.9375 C-11.0623527 0.1653242 -5.8830754 -0.02341523 0 0 Z " fill="#2BB03A" transform="translate(22.6875,5.75)"/>
<path d="M0 0 C0.75990234 -0.020625 1.51980469 -0.04125 2.30273438 -0.0625 C6.95859203 -0.09486044 9.87223015 0.30086083 13.6875 3.25 C15.6875 5.25 15.6875 5.25 15.91796875 7.96484375 C15.89669922 9.56005859 15.89669922 9.56005859 15.875 11.1875 C15.86855469 12.24839844 15.86210938 13.30929688 15.85546875 14.40234375 C15.6875 17.25 15.6875 17.25 14.6875 20.25 C15.0175 20.58 15.3475 20.91 15.6875 21.25 C16.15142486 27.39700441 16.15142486 27.39700441 14.49365234 30.44506836 C11.52158863 33.41512337 8.51322388 32.80703931 4.4921875 32.84570312 C2.91824219 32.82926758 2.91824219 32.82926758 1.3125 32.8125 C-0.24984375 32.84827148 -0.24984375 32.84827148 -1.84375 32.88476562 C-6.46801465 32.87589555 -9.46894177 32.7472445 -13.5 30.37109375 C-16.13728043 25.82974232 -16.04404055 21.91366526 -15.9375 16.75 C-15.95683594 15.81285156 -15.97617188 14.87570313 -15.99609375 13.91015625 C-15.96266664 9.19693392 -15.86976497 6.96416482 -12.8984375 3.15625 C-8.58256778 -0.02523705 -5.22012905 0.03488808 0 0 Z M-6.3125 9.25 C-6.3125 14.2 -6.3125 19.15 -6.3125 24.25 C-1.6925 24.25 2.9275 24.25 7.6875 24.25 C8.0175 23.26 8.3475 22.27 8.6875 21.25 C5.0575 20.92 1.4275 20.59 -2.3125 20.25 C-2.35504356 18.25045254 -2.35330783 16.24958364 -2.3125 14.25 C-0.72977399 12.66727399 1.06784003 12.90264253 3.25 12.6875 C4.48943359 12.56181641 4.48943359 12.56181641 5.75390625 12.43359375 C6.71103516 12.34271484 6.71103516 12.34271484 7.6875 12.25 C7.6875 11.26 7.6875 10.27 7.6875 9.25 C3.0675 9.25 -1.5525 9.25 -6.3125 9.25 Z " fill="#2CAF3A" transform="translate(27.3125,15.75)"/>
<path d="M0 0 C0.67675781 -0.00773438 1.35351562 -0.01546875 2.05078125 -0.0234375 C5.74919257 -0.00884811 7.34603337 0.14735558 10.5 2.25 C11.16 1.59 11.82 0.93 12.5 0.25 C14.9375 -0.125 14.9375 -0.125 17.5 0.25 C17.974375 0.91 18.44875 1.57 18.9375 2.25 C19.7109375 3.24 19.7109375 3.24 20.5 4.25 C23.58365871 4.5002157 23.58365871 4.5002157 26.5 4.25 C27.5 5.25 27.5 5.25 27.625 8.25 C27.5 11.25 27.5 11.25 26.5 12.25 C24.50041636 12.29080783 22.49954746 12.29254356 20.5 12.25 C19.84 10.93 19.18 9.61 18.5 8.25 C17.736875 8.476875 16.97375 8.70375 16.1875 8.9375 C15.300625 9.040625 14.41375 9.14375 13.5 9.25 C11.6875 7.8125 11.6875 7.8125 10.5 6.25 C10.14679687 6.73597656 9.79359375 7.22195312 9.4296875 7.72265625 C5.90585654 10.51176132 1.28065968 9.67705956 -3.0546875 9.74609375 C-7.16173827 10.34678485 -8.6142195 11.3057918 -11.5 14.25 C-12.18594624 17.23556027 -12.18594624 17.23556027 -11.98828125 20.546875 C-11.97216797 21.75214844 -11.95605469 22.95742188 -11.93945312 24.19921875 C-11.89755859 25.45347656 -11.85566406 26.70773438 -11.8125 28 C-11.78994141 29.26972656 -11.76738281 30.53945313 -11.74414062 31.84765625 C-11.68520639 34.98295773 -11.60297079 38.11588595 -11.5 41.25 C-12.16 41.25 -12.82 41.25 -13.5 41.25 C-14.88308781 38.48382437 -14.61210196 36.23982 -14.59765625 33.1484375 C-14.59443359 31.93671875 -14.59121094 30.725 -14.58789062 29.4765625 C-14.57951172 28.20554687 -14.57113281 26.93453125 -14.5625 25.625 C-14.55798828 24.34625 -14.55347656 23.0675 -14.54882812 21.75 C-14.53701203 18.58328708 -14.52053815 15.41666644 -14.5 12.25 C-13.18 11.92 -11.86 11.59 -10.5 11.25 C-10.5 10.59 -10.5 9.93 -10.5 9.25 C-6.86280395 6.82520264 -4.64296518 6.86337423 -0.3125 6.625 C0.95980469 6.55023437 2.23210938 6.47546875 3.54296875 6.3984375 C5.00669922 6.32496094 5.00669922 6.32496094 6.5 6.25 C6.83 4.93 7.16 3.61 7.5 2.25 C1.56 2.25 -4.38 2.25 -10.5 2.25 C-6.87653931 -0.16564046 -4.18396018 -0.04781669 0 0 Z " fill="#81CE89" transform="translate(22.5,5.75)"/>
<path d="M0 0 C5.28 0 10.56 0 16 0 C16 1.65 16 3.3 16 5 C12.7 5 9.4 5 6 5 C6 4.67 6 4.34 6 4 C8.97 4 11.94 4 15 4 C15 3.01 15 2.02 15 1 C10.38 1 5.76 1 1 1 C1 5.95 1 10.9 1 16 C5.62 16 10.24 16 15 16 C15 15.34 15 14.68 15 14 C14.28972656 13.93941406 13.57945313 13.87882812 12.84765625 13.81640625 C11.92855469 13.73261719 11.00945313 13.64882813 10.0625 13.5625 C8.68771484 13.44068359 8.68771484 13.44068359 7.28515625 13.31640625 C5 13 5 13 4 12 C3.95919217 10.00041636 3.95745644 7.99954746 4 6 C4.33 6 4.66 6 5 6 C5.33 7.65 5.66 9.3 6 11 C7.05960938 10.97679687 8.11921875 10.95359375 9.2109375 10.9296875 C10.5989513 10.91093056 11.9869727 10.89273028 13.375 10.875 C14.42300781 10.84986328 14.42300781 10.84986328 15.4921875 10.82421875 C17.32897486 10.80655733 19.16601963 10.89696739 21 11 C23 13 23 13 23.125 16.625 C23.08375 17.73875 23.0425 18.8525 23 20 C22.67 20 22.34 20 22 20 C22 18.35 22 16.7 22 15 C20.35 15 18.7 15 17 15 C17 15.66 17 16.32 17 17 C11.39 17 5.78 17 0 17 C0 11.39 0 5.78 0 0 Z " fill="#76CA7F" transform="translate(20,24)"/>
<path d="M0 0 C2.98704569 0.49784095 4.39324263 1.26216175 7 3 C8.99960012 3.039992 11.00047242 3.04346799 13 3 C14 4 14 4 14.125 7 C14 10 14 10 13 11 C11.00041636 11.04080783 8.99954746 11.04254356 7 11 C6.34 9.35 5.68 7.7 5 6 C3.35 6 1.7 6 0 6 C-0.38218767 4.34385343 -0.71395102 2.67542976 -1 1 C-0.67 0.67 -0.34 0.34 0 0 Z " fill="#5FC16A" transform="translate(36,7)"/>
<path d="M0 0 C1.27230469 0.01804687 2.54460938 0.03609375 3.85546875 0.0546875 C5.31919922 0.08949219 5.31919922 0.08949219 6.8125 0.125 C6.8125 0.455 6.8125 0.785 6.8125 1.125 C6.01585938 1.13917969 5.21921875 1.15335938 4.3984375 1.16796875 C3.33882812 1.21566406 2.27921875 1.26335938 1.1875 1.3125 C0.14335937 1.34730469 -0.90078125 1.38210938 -1.9765625 1.41796875 C-5.18110862 2.12359265 -7.59707767 2.92808437 -10.04931641 5.17456055 C-12.74674277 9.79698423 -11.7708826 15.77335164 -11.5625 20.9375 C-11.53542969 22.20271484 -11.50835937 23.46792969 -11.48046875 24.77148438 C-11.40983697 27.8910547 -11.31123646 31.00715841 -11.1875 34.125 C-11.8475 34.125 -12.5075 34.125 -13.1875 34.125 C-14.57058781 31.35882437 -14.29960196 29.11482 -14.28515625 26.0234375 C-14.28193359 24.81171875 -14.27871094 23.6 -14.27539062 22.3515625 C-14.26701172 21.08054687 -14.25863281 19.80953125 -14.25 18.5 C-14.24548828 17.22125 -14.24097656 15.9425 -14.23632812 14.625 C-14.22451203 11.45828708 -14.20803815 8.29166644 -14.1875 5.125 C-12.8675 4.795 -11.5475 4.465 -10.1875 4.125 C-10.1875 3.465 -10.1875 2.805 -10.1875 2.125 C-6.4507157 -0.36618953 -4.44298181 -0.0815226 0 0 Z " fill="#76CC7F" transform="translate(22.1875,12.875)"/>
<path d="M0 0 C0.99 0.33 1.98 0.66 3 1 C2.2884375 1.680625 2.2884375 1.680625 1.5625 2.375 C-0.09027808 3.93258204 -0.09027808 3.93258204 -1 6 C-1.66 6 -2.32 6 -3 6 C-3.33 6.99 -3.66 7.98 -4 9 C-4.66 9 -5.32 9 -6 9 C-5.67 19.89 -5.34 30.78 -5 42 C-9.25493035 36.32675954 -8.47753694 31.59205271 -8.4375 24.6875 C-8.45748047 23.47642578 -8.47746094 22.26535156 -8.49804688 21.01757812 C-8.49340042 12.52849682 -7.58391146 7.88257075 -1.75 1.5625 C-1.1725 1.046875 -0.595 0.53125 0 0 Z " fill="#62C16E" transform="translate(9,8)"/>
<path d="M0 0 C0.6875 1.8125 0.6875 1.8125 1 4 C-0.84159673 6.48615558 -2.00470711 7.00156904 -5 8 C-9.18333258 8.25888415 -13.37201103 8.23134451 -17.5625 8.25 C-18.72458984 8.270625 -19.88667969 8.29125 -21.08398438 8.3125 C-22.7459082 8.32023437 -22.7459082 8.32023437 -24.44140625 8.328125 C-25.96809937 8.34214355 -25.96809937 8.34214355 -27.52563477 8.35644531 C-28.34217529 8.23881836 -29.15871582 8.12119141 -30 8 C-30.66 7.01 -31.32 6.02 -32 5 C-30.81241089 5.03927612 -30.81241089 5.03927612 -29.60083008 5.0793457 C-26.00492283 5.18344122 -22.40933269 5.248369 -18.8125 5.3125 C-16.94368164 5.3753418 -16.94368164 5.3753418 -15.03710938 5.43945312 C-8.79694934 5.74596029 -8.79694934 5.74596029 -3.02099609 3.86474609 C-1.46618663 2.40257301 -1.46618663 2.40257301 0 0 Z " fill="#93D79A" transform="translate(45,44)"/>
<path d="M0 0 C2.4375 1.375 2.4375 1.375 3.375 3.875 C3.395625 4.7 3.41625 5.525 3.4375 6.375 C1.4375 8.375 1.4375 8.375 -1.0625 8.625 C-3.5625 8.375 -3.5625 8.375 -5.5625 6.375 C-5.3125 3.3125 -5.3125 3.3125 -4.5625 0.375 C-2.5625 -0.625 -2.5625 -0.625 0 0 Z " fill="#8CD394" transform="translate(51.5625,18.625)"/>
<path d="M0 0 C0.99 0.33 1.98 0.66 3 1 C-4.25969723 6.82059059 -10.43002886 6.61206714 -19.5 6.3125 C-21.4490625 6.27866211 -21.4490625 6.27866211 -23.4375 6.24414062 C-26.62620497 6.18552472 -29.81248932 6.10351129 -33 6 C-33 5.67 -33 5.34 -33 5 C-32.2793335 4.98541748 -31.55866699 4.97083496 -30.81616211 4.95581055 C-27.52275913 4.88093041 -24.23032564 4.78440159 -20.9375 4.6875 C-19.80376953 4.66494141 -18.67003906 4.64238281 -17.50195312 4.61914062 C-8.03824358 4.51088071 -8.03824358 4.51088071 0 0 Z " fill="#8DCE94" transform="translate(47,53)"/>
<path d="M0 0 C0.66 0 1.32 0 2 0 C1.67 0.99 1.34 1.98 1 3 C0.34 3 -0.32 3 -1 3 C-0.98839844 3.9178125 -0.97679687 4.835625 -0.96484375 5.78125 C-0.91698507 12.29003027 -0.97099303 18.56870645 -2 25 C-2.33 25 -2.66 25 -3 25 C-3.08724706 21.5834948 -3.14047325 18.16727687 -3.1875 14.75 C-3.21263672 13.78191406 -3.23777344 12.81382813 -3.26367188 11.81640625 C-3.27333984 10.88183594 -3.28300781 9.94726562 -3.29296875 8.984375 C-3.3086792 8.12553711 -3.32438965 7.26669922 -3.34057617 6.38183594 C-2.92586985 3.48156719 -2.00490394 2.1069618 0 0 Z " fill="#83D38C" transform="translate(15,18)"/>
<path d="M0 0 C0.99 0.33 1.98 0.66 3 1 C3 1.66 3 2.32 3 3 C6.39576062 3.05830787 9.7913915 3.09369946 13.1875 3.125 C14.14720703 3.14175781 15.10691406 3.15851562 16.09570312 3.17578125 C17.49272461 3.18544922 17.49272461 3.18544922 18.91796875 3.1953125 C19.77156982 3.20578613 20.6251709 3.21625977 21.50463867 3.22705078 C24.30726815 2.97204194 26.44729419 2.15541422 29 1 C28.34 2.32 27.68 3.64 27 5 C23.25014675 5.0871747 19.50055445 5.14045003 15.75 5.1875 C14.15478516 5.22520508 14.15478516 5.22520508 12.52734375 5.26367188 C11.50253906 5.27333984 10.47773438 5.28300781 9.421875 5.29296875 C8.47924805 5.3086792 7.53662109 5.32438965 6.56542969 5.34057617 C3.54638491 4.93977988 2.17395046 4.10269958 0 2 C0 1.34 0 0.68 0 0 Z " fill="#6FC477" transform="translate(13,43)"/>
<path d="M0 0 C2.0625 0.4375 2.0625 0.4375 4 1 C4.33 2.65 4.66 4.3 5 6 C3.35 6 1.7 6 0 6 C-0.38218767 4.34385343 -0.71395102 2.67542976 -1 1 C-0.67 0.67 -0.34 0.34 0 0 Z " fill="#2DAD3C" transform="translate(36,7)"/>
<path d="M0 0 C1.27230469 0.01804687 2.54460938 0.03609375 3.85546875 0.0546875 C5.31919922 0.08949219 5.31919922 0.08949219 6.8125 0.125 C6.8125 0.455 6.8125 0.785 6.8125 1.125 C6.02746094 1.13917969 5.24242188 1.15335938 4.43359375 1.16796875 C-2.7523662 1.49420251 -6.77457671 2.32718163 -12.1875 7.125 C-12.1875 6.135 -12.1875 5.145 -12.1875 4.125 C-11.5275 4.125 -10.8675 4.125 -10.1875 4.125 C-10.1875 3.465 -10.1875 2.805 -10.1875 2.125 C-6.4507157 -0.36618953 -4.44298181 -0.0815226 0 0 Z " fill="#61C16C" transform="translate(22.1875,12.875)"/>
<path d="M0 0 C2.475 0.495 2.475 0.495 5 1 C5 2.65 5 4.3 5 6 C3.35 5.67 1.7 5.34 0 5 C0 3.35 0 1.7 0 0 Z " fill="#28AD37" transform="translate(48,20)"/>
<path d="M0 0 C0.99 0.33 1.98 0.66 3 1 C2.2884375 1.680625 2.2884375 1.680625 1.5625 2.375 C-0.09027808 3.93258204 -0.09027808 3.93258204 -1 6 C-1.66 6 -2.32 6 -3 6 C-3.33 6.99 -3.66 7.98 -4 9 C-4.99 9.33 -5.98 9.66 -7 10 C-5.6062718 5.56541027 -3.39417765 3.12621626 0 0 Z " fill="#68C473" transform="translate(9,8)"/>
<path d="M0 0 C0.6875 1.8125 0.6875 1.8125 1 4 C-0.1875 5.8125 -0.1875 5.8125 -2 7 C-4.1875 6.6875 -4.1875 6.6875 -6 6 C-5.195625 5.38125 -4.39125 4.7625 -3.5625 4.125 C-0.96125481 2.25835959 -0.96125481 2.25835959 0 0 Z " fill="#72C97B" transform="translate(45,44)"/>
<path d="M0 0 C0.99 0.33 1.98 0.66 3 1 C-0.79692186 3.82561627 -3.18569279 5.56638908 -8 5 C-7.4225 4.731875 -6.845 4.46375 -6.25 4.1875 C-3.93538025 3.06119881 -3.93538025 3.06119881 -1.9375 1.3125 C-0.9784375 0.6628125 -0.9784375 0.6628125 0 0 Z " fill="#71C77B" transform="translate(47,53)"/>
</svg>
